solid OpenSCAD_Model
  facet normal -0.27998 -0.861689 -0.423206
    outer loop
      vertex -0.54045 -0.529388 -0.586602
      vertex -0.469098 -0.595105 -0.5
      vertex -0.580901 -0.558778 -0.5
    endloop
  endfacet
  facet normal -0.27999 -0.86169 -0.423198
    outer loop
      vertex -0.469098 -0.595105 -0.5
      vertex -0.54045 -0.529388 -0.586602
      vertex -0.484549 -0.547552 -0.586602
    endloop
  endfacet
  facet normal 0 0 1
    outer loop
      vertex -0.484549 -0.452447 -0.413397
      vertex -0.484549 -0.547552 -0.413397
      vertex -0.45 -0.5 -0.413397
    endloop
  endfacet
  facet normal -0 0 1
    outer loop
      vertex -0.54045 -0.470611 -0.413397
      vertex -0.484549 -0.547552 -0.413397
      vertex -0.484549 -0.452447 -0.413397
    endloop
  endfacet
  facet normal 0 0 1
    outer loop
      vertex -0.484549 -0.547552 -0.413397
      vertex -0.54045 -0.470611 -0.413397
      vertex -0.54045 -0.529388 -0.413397
    endloop
  endfacet
  facet normal 0.733002 0.532553 0.423197
    outer loop
      vertex -0.469098 -0.404894 -0.5
      vertex -0.484549 -0.452447 -0.413397
      vertex -0.4 -0.5 -0.5
    endloop
  endfacet
  facet normal 0.733002 0.532553 0.423197
    outer loop
      vertex -0.4 -0.5 -0.5
      vertex -0.484549 -0.452447 -0.413397
      vertex -0.45 -0.5 -0.413397
    endloop
  endfacet
  facet normal -0.279991 0.861691 0.423194
    outer loop
      vertex -0.469098 -0.404894 -0.5
      vertex -0.54045 -0.470611 -0.413397
      vertex -0.484549 -0.452447 -0.413397
    endloop
  endfacet
  facet normal -0.27998 0.861691 0.423202
    outer loop
      vertex -0.54045 -0.470611 -0.413397
      vertex -0.469098 -0.404894 -0.5
      vertex -0.580901 -0.441221 -0.5
    endloop
  endfacet
  facet normal -0.27998 -0.861691 0.423202
    outer loop
      vertex -0.469098 -0.595105 -0.5
      vertex -0.54045 -0.529388 -0.413397
      vertex -0.580901 -0.558778 -0.5
    endloop
  endfacet
  facet normal -0.279991 -0.861691 0.423194
    outer loop
      vertex -0.54045 -0.529388 -0.413397
      vertex -0.469098 -0.595105 -0.5
      vertex -0.484549 -0.547552 -0.413397
    endloop
  endfacet
  facet normal -0.906036 0 -0.423201
    outer loop
      vertex -0.54045 -0.529388 -0.586602
      vertex -0.580901 -0.441221 -0.5
      vertex -0.54045 -0.470611 -0.586602
    endloop
  endfacet
  facet normal -0.906036 -0 -0.423201
    outer loop
      vertex -0.580901 -0.441221 -0.5
      vertex -0.54045 -0.529388 -0.586602
      vertex -0.580901 -0.558778 -0.5
    endloop
  endfacet
  facet normal -0.906038 0 0.423197
    outer loop
      vertex -0.580901 -0.441221 -0.5
      vertex -0.54045 -0.529388 -0.413397
      vertex -0.54045 -0.470611 -0.413397
    endloop
  endfacet
  facet normal -0.906038 0 0.423197
    outer loop
      vertex -0.54045 -0.529388 -0.413397
      vertex -0.580901 -0.441221 -0.5
      vertex -0.580901 -0.558778 -0.5
    endloop
  endfacet
  facet normal 0.732996 -0.53256 -0.423198
    outer loop
      vertex -0.4 -0.5 -0.5
      vertex -0.484549 -0.547552 -0.586602
      vertex -0.45 -0.5 -0.586602
    endloop
  endfacet
  facet normal -0.27999 0.86169 -0.423198
    outer loop
      vertex -0.54045 -0.470611 -0.586602
      vertex -0.469098 -0.404894 -0.5
      vertex -0.484549 -0.452447 -0.586602
    endloop
  endfacet
  facet normal -0.27998 0.861689 -0.423206
    outer loop
      vertex -0.469098 -0.404894 -0.5
      vertex -0.54045 -0.470611 -0.586602
      vertex -0.580901 -0.441221 -0.5
    endloop
  endfacet
  facet normal 0.732997 -0.532555 -0.423202
    outer loop
      vertex -0.469098 -0.595105 -0.5
      vertex -0.484549 -0.547552 -0.586602
      vertex -0.4 -0.5 -0.5
    endloop
  endfacet
  facet normal 0.733001 0.532552 -0.423201
    outer loop
      vertex -0.4 -0.5 -0.5
      vertex -0.484549 -0.452447 -0.586602
      vertex -0.469098 -0.404894 -0.5
    endloop
  endfacet
  facet normal 0.733001 0.532552 -0.423201
    outer loop
      vertex -0.45 -0.5 -0.586602
      vertex -0.484549 -0.452447 -0.586602
      vertex -0.4 -0.5 -0.5
    endloop
  endfacet
  facet normal 0.732999 -0.532556 0.423198
    outer loop
      vertex -0.4 -0.5 -0.5
      vertex -0.484549 -0.547552 -0.413397
      vertex -0.469098 -0.595105 -0.5
    endloop
  endfacet
  facet normal 0.732998 -0.532561 0.423194
    outer loop
      vertex -0.45 -0.5 -0.413397
      vertex -0.484549 -0.547552 -0.413397
      vertex -0.4 -0.5 -0.5
    endloop
  endfacet
  facet normal 0 0 -1
    outer loop
      vertex -0.484549 -0.547552 -0.586602
      vertex -0.484549 -0.452447 -0.586602
      vertex -0.45 -0.5 -0.586602
    endloop
  endfacet
  facet normal 0 0 -1
    outer loop
      vertex -0.54045 -0.529388 -0.586602
      vertex -0.484549 -0.452447 -0.586602
      vertex -0.484549 -0.547552 -0.586602
    endloop
  endfacet
  facet normal 0 0 -1
    outer loop
      vertex -0.484549 -0.452447 -0.586602
      vertex -0.54045 -0.529388 -0.586602
      vertex -0.54045 -0.470611 -0.586602
    endloop
  endfacet
  facet normal -0.27998 -0.861691 -0.423202
    outer loop
      vertex -0.54045 -0.529388 0.413397
      vertex -0.469098 -0.595105 0.5
      vertex -0.580901 -0.558778 0.5
    endloop
  endfacet
  facet normal -0.279991 -0.861691 -0.423194
    outer loop
      vertex -0.469098 -0.595105 0.5
      vertex -0.54045 -0.529388 0.413397
      vertex -0.484549 -0.547552 0.413397
    endloop
  endfacet
  facet normal 0 0 -1
    outer loop
      vertex -0.484549 -0.547552 0.413397
      vertex -0.484549 -0.452447 0.413397
      vertex -0.45 -0.5 0.413397
    endloop
  endfacet
  facet normal 0 0 -1
    outer loop
      vertex -0.54045 -0.529388 0.413397
      vertex -0.484549 -0.452447 0.413397
      vertex -0.484549 -0.547552 0.413397
    endloop
  endfacet
  facet normal 0 0 -1
    outer loop
      vertex -0.484549 -0.452447 0.413397
      vertex -0.54045 -0.529388 0.413397
      vertex -0.54045 -0.470611 0.413397
    endloop
  endfacet
  facet normal 0 0 1
    outer loop
      vertex -0.484549 -0.452447 0.586602
      vertex -0.484549 -0.547552 0.586602
      vertex -0.45 -0.5 0.586602
    endloop
  endfacet
  facet normal -0 0 1
    outer loop
      vertex -0.54045 -0.470611 0.586602
      vertex -0.484549 -0.547552 0.586602
      vertex -0.484549 -0.452447 0.586602
    endloop
  endfacet
  facet normal 0 0 1
    outer loop
      vertex -0.484549 -0.547552 0.586602
      vertex -0.54045 -0.470611 0.586602
      vertex -0.54045 -0.529388 0.586602
    endloop
  endfacet
  facet normal 0.733001 0.532552 0.423201
    outer loop
      vertex -0.469098 -0.404894 0.5
      vertex -0.484549 -0.452447 0.586602
      vertex -0.4 -0.5 0.5
    endloop
  endfacet
  facet normal 0.733001 0.532552 0.423201
    outer loop
      vertex -0.4 -0.5 0.5
      vertex -0.484549 -0.452447 0.586602
      vertex -0.45 -0.5 0.586602
    endloop
  endfacet
  facet normal -0.906036 0 0.423201
    outer loop
      vertex -0.580901 -0.441221 0.5
      vertex -0.54045 -0.529388 0.586602
      vertex -0.54045 -0.470611 0.586602
    endloop
  endfacet
  facet normal -0.906036 0 0.423201
    outer loop
      vertex -0.54045 -0.529388 0.586602
      vertex -0.580901 -0.441221 0.5
      vertex -0.580901 -0.558778 0.5
    endloop
  endfacet
  facet normal -0.27998 -0.861689 0.423206
    outer loop
      vertex -0.469098 -0.595105 0.5
      vertex -0.54045 -0.529388 0.586602
      vertex -0.580901 -0.558778 0.5
    endloop
  endfacet
  facet normal -0.27999 -0.86169 0.423198
    outer loop
      vertex -0.54045 -0.529388 0.586602
      vertex -0.469098 -0.595105 0.5
      vertex -0.484549 -0.547552 0.586602
    endloop
  endfacet
  facet normal -0.906038 0 -0.423197
    outer loop
      vertex -0.54045 -0.529388 0.413397
      vertex -0.580901 -0.441221 0.5
      vertex -0.54045 -0.470611 0.413397
    endloop
  endfacet
  facet normal -0.906038 -0 -0.423197
    outer loop
      vertex -0.580901 -0.441221 0.5
      vertex -0.54045 -0.529388 0.413397
      vertex -0.580901 -0.558778 0.5
    endloop
  endfacet
  facet normal -0.27999 0.86169 0.423198
    outer loop
      vertex -0.469098 -0.404894 0.5
      vertex -0.54045 -0.470611 0.586602
      vertex -0.484549 -0.452447 0.586602
    endloop
  endfacet
  facet normal -0.27998 0.861689 0.423206
    outer loop
      vertex -0.54045 -0.470611 0.586602
      vertex -0.469098 -0.404894 0.5
      vertex -0.580901 -0.441221 0.5
    endloop
  endfacet
  facet normal 0.732998 -0.532561 -0.423194
    outer loop
      vertex -0.4 -0.5 0.5
      vertex -0.484549 -0.547552 0.413397
      vertex -0.45 -0.5 0.413397
    endloop
  endfacet
  facet normal -0.279991 0.861691 -0.423194
    outer loop
      vertex -0.54045 -0.470611 0.413397
      vertex -0.469098 -0.404894 0.5
      vertex -0.484549 -0.452447 0.413397
    endloop
  endfacet
  facet normal -0.27998 0.861691 -0.423202
    outer loop
      vertex -0.469098 -0.404894 0.5
      vertex -0.54045 -0.470611 0.413397
      vertex -0.580901 -0.441221 0.5
    endloop
  endfacet
  facet normal 0.732999 -0.532556 -0.423198
    outer loop
      vertex -0.469098 -0.595105 0.5
      vertex -0.484549 -0.547552 0.413397
      vertex -0.4 -0.5 0.5
    endloop
  endfacet
  facet normal 0.733002 0.532553 -0.423197
    outer loop
      vertex -0.4 -0.5 0.5
      vertex -0.484549 -0.452447 0.413397
      vertex -0.469098 -0.404894 0.5
    endloop
  endfacet
  facet normal 0.733002 0.532553 -0.423197
    outer loop
      vertex -0.45 -0.5 0.413397
      vertex -0.484549 -0.452447 0.413397
      vertex -0.4 -0.5 0.5
    endloop
  endfacet
  facet normal 0.732997 -0.532555 0.423202
    outer loop
      vertex -0.4 -0.5 0.5
      vertex -0.484549 -0.547552 0.586602
      vertex -0.469098 -0.595105 0.5
    endloop
  endfacet
  facet normal 0.732996 -0.53256 0.423198
    outer loop
      vertex -0.45 -0.5 0.586602
      vertex -0.484549 -0.547552 0.586602
      vertex -0.4 -0.5 0.5
    endloop
  endfacet
  facet normal 0.732997 -0.532559 -0.423198
    outer loop
      vertex -0.9 0 0
      vertex -0.984549 -0.0475521 -0.0866022
      vertex -0.95 0 -0.0866022
    endloop
  endfacet
  facet normal 0.732998 0.532555 0.423201
    outer loop
      vertex -0.969098 0.0951052 0
      vertex -0.984549 0.0475521 0.0866022
      vertex -0.9 0 0
    endloop
  endfacet
  facet normal 0.732997 0.532559 0.423198
    outer loop
      vertex -0.9 0 0
      vertex -0.984549 0.0475521 0.0866022
      vertex -0.95 0 0.0866022
    endloop
  endfacet
  facet normal -0.90604 0 0.423192
    outer loop
      vertex -1.0809 0.0587778 0
      vertex -1.04045 -0.0293884 0.0866022
      vertex -1.04045 0.0293884 0.0866022
    endloop
  endfacet
  facet normal -0.90604 0 0.423192
    outer loop
      vertex -1.04045 -0.0293884 0.0866022
      vertex -1.0809 0.0587778 0
      vertex -1.0809 -0.0587778 0
    endloop
  endfacet
  facet normal -0.279986 0.86169 0.423199
    outer loop
      vertex -0.969098 0.0951052 0
      vertex -1.04045 0.0293884 0.0866022
      vertex -0.984549 0.0475521 0.0866022
    endloop
  endfacet
  facet normal -0.279986 0.86169 0.423199
    outer loop
      vertex -1.04045 0.0293884 0.0866022
      vertex -0.969098 0.0951052 0
      vertex -1.0809 0.0587778 0
    endloop
  endfacet
  facet normal 0.732998 -0.532555 -0.423201
    outer loop
      vertex -0.969098 -0.0951052 0
      vertex -0.984549 -0.0475521 -0.0866022
      vertex -0.9 0 0
    endloop
  endfacet
  facet normal -0.90604 0 -0.423192
    outer loop
      vertex -1.04045 -0.0293884 -0.0866022
      vertex -1.0809 0.0587778 0
      vertex -1.04045 0.0293884 -0.0866022
    endloop
  endfacet
  facet normal -0.90604 -0 -0.423192
    outer loop
      vertex -1.0809 0.0587778 0
      vertex -1.04045 -0.0293884 -0.0866022
      vertex -1.0809 -0.0587778 0
    endloop
  endfacet
  facet normal -0.279986 -0.86169 -0.423199
    outer loop
      vertex -1.04045 -0.0293884 -0.0866022
      vertex -0.969098 -0.0951052 0
      vertex -1.0809 -0.0587778 0
    endloop
  endfacet
  facet normal -0.279986 -0.86169 -0.423199
    outer loop
      vertex -0.969098 -0.0951052 0
      vertex -1.04045 -0.0293884 -0.0866022
      vertex -0.984549 -0.0475521 -0.0866022
    endloop
  endfacet
  facet normal 0.732998 -0.532555 0.423201
    outer loop
      vertex -0.9 0 0
      vertex -0.984549 -0.0475521 0.0866022
      vertex -0.969098 -0.0951052 0
    endloop
  endfacet
  facet normal 0.732997 -0.532559 0.423198
    outer loop
      vertex -0.95 0 0.0866022
      vertex -0.984549 -0.0475521 0.0866022
      vertex -0.9 0 0
    endloop
  endfacet
  facet normal 0.732998 0.532555 -0.423201
    outer loop
      vertex -0.9 0 0
      vertex -0.984549 0.0475521 -0.0866022
      vertex -0.969098 0.0951052 0
    endloop
  endfacet
  facet normal 0.732997 0.532559 -0.423198
    outer loop
      vertex -0.95 0 -0.0866022
      vertex -0.984549 0.0475521 -0.0866022
      vertex -0.9 0 0
    endloop
  endfacet
  facet normal -0.279986 -0.86169 0.423199
    outer loop
      vertex -0.969098 -0.0951052 0
      vertex -1.04045 -0.0293884 0.0866022
      vertex -1.0809 -0.0587778 0
    endloop
  endfacet
  facet normal -0.279986 -0.86169 0.423199
    outer loop
      vertex -1.04045 -0.0293884 0.0866022
      vertex -0.969098 -0.0951052 0
      vertex -0.984549 -0.0475521 0.0866022
    endloop
  endfacet
  facet normal 0 0 1
    outer loop
      vertex -0.984549 0.0475521 0.0866022
      vertex -0.984549 -0.0475521 0.0866022
      vertex -0.95 0 0.0866022
    endloop
  endfacet
  facet normal -0 0 1
    outer loop
      vertex -1.04045 0.0293884 0.0866022
      vertex -0.984549 -0.0475521 0.0866022
      vertex -0.984549 0.0475521 0.0866022
    endloop
  endfacet
  facet normal 0 0 1
    outer loop
      vertex -0.984549 -0.0475521 0.0866022
      vertex -1.04045 0.0293884 0.0866022
      vertex -1.04045 -0.0293884 0.0866022
    endloop
  endfacet
  facet normal -0.279986 0.86169 -0.423199
    outer loop
      vertex -1.04045 0.0293884 -0.0866022
      vertex -0.969098 0.0951052 0
      vertex -0.984549 0.0475521 -0.0866022
    endloop
  endfacet
  facet normal -0.279986 0.86169 -0.423199
    outer loop
      vertex -0.969098 0.0951052 0
      vertex -1.04045 0.0293884 -0.0866022
      vertex -1.0809 0.0587778 0
    endloop
  endfacet
  facet normal 0 0 -1
    outer loop
      vertex -0.984549 -0.0475521 -0.0866022
      vertex -0.984549 0.0475521 -0.0866022
      vertex -0.95 0 -0.0866022
    endloop
  endfacet
  facet normal 0 0 -1
    outer loop
      vertex -1.04045 -0.0293884 -0.0866022
      vertex -0.984549 0.0475521 -0.0866022
      vertex -0.984549 -0.0475521 -0.0866022
    endloop
  endfacet
  facet normal 0 0 -1
    outer loop
      vertex -0.984549 0.0475521 -0.0866022
      vertex -1.04045 -0.0293884 -0.0866022
      vertex -1.04045 0.0293884 -0.0866022
    endloop
  endfacet
  facet normal 0.733002 -0.532553 -0.423197
    outer loop
      vertex -0.4 0.5 0.5
      vertex -0.484549 0.452447 0.413397
      vertex -0.45 0.5 0.413397
    endloop
  endfacet
  facet normal 0.732997 0.532555 0.423202
    outer loop
      vertex -0.469098 0.595105 0.5
      vertex -0.484549 0.547552 0.586602
      vertex -0.4 0.5 0.5
    endloop
  endfacet
  facet normal 0.732996 0.53256 0.423198
    outer loop
      vertex -0.4 0.5 0.5
      vertex -0.484549 0.547552 0.586602
      vertex -0.45 0.5 0.586602
    endloop
  endfacet
  facet normal -0.906036 0 0.423201
    outer loop
      vertex -0.580901 0.558778 0.5
      vertex -0.54045 0.470611 0.586602
      vertex -0.54045 0.529388 0.586602
    endloop
  endfacet
  facet normal -0.906036 0 0.423201
    outer loop
      vertex -0.54045 0.470611 0.586602
      vertex -0.580901 0.558778 0.5
      vertex -0.580901 0.441221 0.5
    endloop
  endfacet
  facet normal -0.27999 0.86169 0.423198
    outer loop
      vertex -0.469098 0.595105 0.5
      vertex -0.54045 0.529388 0.586602
      vertex -0.484549 0.547552 0.586602
    endloop
  endfacet
  facet normal -0.27998 0.861689 0.423206
    outer loop
      vertex -0.54045 0.529388 0.586602
      vertex -0.469098 0.595105 0.5
      vertex -0.580901 0.558778 0.5
    endloop
  endfacet
  facet normal 0.733002 -0.532553 -0.423197
    outer loop
      vertex -0.469098 0.404894 0.5
      vertex -0.484549 0.452447 0.413397
      vertex -0.4 0.5 0.5
    endloop
  endfacet
  facet normal -0.906038 0 -0.423197
    outer loop
      vertex -0.54045 0.470611 0.413397
      vertex -0.580901 0.558778 0.5
      vertex -0.54045 0.529388 0.413397
    endloop
  endfacet
  facet normal -0.906038 -0 -0.423197
    outer loop
      vertex -0.580901 0.558778 0.5
      vertex -0.54045 0.470611 0.413397
      vertex -0.580901 0.441221 0.5
    endloop
  endfacet
  facet normal -0.27998 -0.861691 -0.423202
    outer loop
      vertex -0.54045 0.470611 0.413397
      vertex -0.469098 0.404894 0.5
      vertex -0.580901 0.441221 0.5
    endloop
  endfacet
  facet normal -0.279991 -0.861691 -0.423194
    outer loop
      vertex -0.469098 0.404894 0.5
      vertex -0.54045 0.470611 0.413397
      vertex -0.484549 0.452447 0.413397
    endloop
  endfacet
  facet normal 0.733001 -0.532552 0.423201
    outer loop
      vertex -0.4 0.5 0.5
      vertex -0.484549 0.452447 0.586602
      vertex -0.469098 0.404894 0.5
    endloop
  endfacet
  facet normal 0.733001 -0.532552 0.423201
    outer loop
      vertex -0.45 0.5 0.586602
      vertex -0.484549 0.452447 0.586602
      vertex -0.4 0.5 0.5
    endloop
  endfacet
  facet normal 0.732999 0.532556 -0.423198
    outer loop
      vertex -0.4 0.5 0.5
      vertex -0.484549 0.547552 0.413397
      vertex -0.469098 0.595105 0.5
    endloop
  endfacet
  facet normal 0.732998 0.532561 -0.423194
    outer loop
      vertex -0.45 0.5 0.413397
      vertex -0.484549 0.547552 0.413397
      vertex -0.4 0.5 0.5
    endloop
  endfacet
  facet normal -0.27998 -0.861689 0.423206
    outer loop
      vertex -0.469098 0.404894 0.5
      vertex -0.54045 0.470611 0.586602
      vertex -0.580901 0.441221 0.5
    endloop
  endfacet
  facet normal -0.27999 -0.86169 0.423198
    outer loop
      vertex -0.54045 0.470611 0.586602
      vertex -0.469098 0.404894 0.5
      vertex -0.484549 0.452447 0.586602
    endloop
  endfacet
  facet normal 0 0 1
    outer loop
      vertex -0.484549 0.547552 0.586602
      vertex -0.484549 0.452447 0.586602
      vertex -0.45 0.5 0.586602
    endloop
  endfacet
  facet normal -0 0 1
    outer loop
      vertex -0.54045 0.529388 0.586602
      vertex -0.484549 0.452447 0.586602
      vertex -0.484549 0.547552 0.586602
    endloop
  endfacet
  facet normal 0 0 1
    outer loop
      vertex -0.484549 0.452447 0.586602
      vertex -0.54045 0.529388 0.586602
      vertex -0.54045 0.470611 0.586602
    endloop
  endfacet
  facet normal -0.279991 0.861691 -0.423194
    outer loop
      vertex -0.54045 0.529388 0.413397
      vertex -0.469098 0.595105 0.5
      vertex -0.484549 0.547552 0.413397
    endloop
  endfacet
  facet normal -0.27998 0.861691 -0.423202
    outer loop
      vertex -0.469098 0.595105 0.5
      vertex -0.54045 0.529388 0.413397
      vertex -0.580901 0.558778 0.5
    endloop
  endfacet
  facet normal 0 0 -1
    outer loop
      vertex -0.484549 0.452447 0.413397
      vertex -0.484549 0.547552 0.413397
      vertex -0.45 0.5 0.413397
    endloop
  endfacet
  facet normal 0 0 -1
    outer loop
      vertex -0.54045 0.470611 0.413397
      vertex -0.484549 0.547552 0.413397
      vertex -0.484549 0.452447 0.413397
    endloop
  endfacet
  facet normal 0 0 -1
    outer loop
      vertex -0.484549 0.547552 0.413397
      vertex -0.54045 0.470611 0.413397
      vertex -0.54045 0.529388 0.413397
    endloop
  endfacet
  facet normal 0.732997 -0.53255 -0.423209
    outer loop
      vertex -0.4 0.5 1.5
      vertex -0.484549 0.452447 1.4134
      vertex -0.45 0.5 1.4134
    endloop
  endfacet
  facet normal 0.732994 0.532553 0.42321
    outer loop
      vertex -0.469098 0.595105 1.5
      vertex -0.484549 0.547552 1.5866
      vertex -0.4 0.5 1.5
    endloop
  endfacet
  facet normal 0.732993 0.532558 0.423206
    outer loop
      vertex -0.4 0.5 1.5
      vertex -0.484549 0.547552 1.5866
      vertex -0.45 0.5 1.5866
    endloop
  endfacet
  facet normal -0.906032 0 0.423209
    outer loop
      vertex -0.580901 0.558778 1.5
      vertex -0.54045 0.470611 1.5866
      vertex -0.54045 0.529388 1.5866
    endloop
  endfacet
  facet normal -0.906032 0 0.423209
    outer loop
      vertex -0.54045 0.470611 1.5866
      vertex -0.580901 0.558778 1.5
      vertex -0.580901 0.441221 1.5
    endloop
  endfacet
  facet normal -0.279989 0.861686 0.423206
    outer loop
      vertex -0.469098 0.595105 1.5
      vertex -0.54045 0.529388 1.5866
      vertex -0.484549 0.547552 1.5866
    endloop
  endfacet
  facet normal -0.279979 0.861685 0.423214
    outer loop
      vertex -0.54045 0.529388 1.5866
      vertex -0.469098 0.595105 1.5
      vertex -0.580901 0.558778 1.5
    endloop
  endfacet
  facet normal 0.732997 -0.53255 -0.423209
    outer loop
      vertex -0.469098 0.404894 1.5
      vertex -0.484549 0.452447 1.4134
      vertex -0.4 0.5 1.5
    endloop
  endfacet
  facet normal -0.906032 0 -0.423209
    outer loop
      vertex -0.54045 0.470611 1.4134
      vertex -0.580901 0.558778 1.5
      vertex -0.54045 0.529388 1.4134
    endloop
  endfacet
  facet normal -0.906032 -0 -0.423209
    outer loop
      vertex -0.580901 0.558778 1.5
      vertex -0.54045 0.470611 1.4134
      vertex -0.580901 0.441221 1.5
    endloop
  endfacet
  facet normal -0.279979 -0.861685 -0.423214
    outer loop
      vertex -0.54045 0.470611 1.4134
      vertex -0.469098 0.404894 1.5
      vertex -0.580901 0.441221 1.5
    endloop
  endfacet
  facet normal -0.279989 -0.861686 -0.423206
    outer loop
      vertex -0.469098 0.404894 1.5
      vertex -0.54045 0.470611 1.4134
      vertex -0.484549 0.452447 1.4134
    endloop
  endfacet
  facet normal 0.732997 -0.53255 0.423209
    outer loop
      vertex -0.4 0.5 1.5
      vertex -0.484549 0.452447 1.5866
      vertex -0.469098 0.404894 1.5
    endloop
  endfacet
  facet normal 0.732997 -0.53255 0.423209
    outer loop
      vertex -0.45 0.5 1.5866
      vertex -0.484549 0.452447 1.5866
      vertex -0.4 0.5 1.5
    endloop
  endfacet
  facet normal 0.732994 0.532553 -0.42321
    outer loop
      vertex -0.4 0.5 1.5
      vertex -0.484549 0.547552 1.4134
      vertex -0.469098 0.595105 1.5
    endloop
  endfacet
  facet normal 0.732993 0.532558 -0.423206
    outer loop
      vertex -0.45 0.5 1.4134
      vertex -0.484549 0.547552 1.4134
      vertex -0.4 0.5 1.5
    endloop
  endfacet
  facet normal -0.279979 -0.861685 0.423214
    outer loop
      vertex -0.469098 0.404894 1.5
      vertex -0.54045 0.470611 1.5866
      vertex -0.580901 0.441221 1.5
    endloop
  endfacet
  facet normal -0.279989 -0.861686 0.423206
    outer loop
      vertex -0.54045 0.470611 1.5866
      vertex -0.469098 0.404894 1.5
      vertex -0.484549 0.452447 1.5866
    endloop
  endfacet
  facet normal 0 0 1
    outer loop
      vertex -0.484549 0.547552 1.5866
      vertex -0.484549 0.452447 1.5866
      vertex -0.45 0.5 1.5866
    endloop
  endfacet
  facet normal -0 0 1
    outer loop
      vertex -0.54045 0.529388 1.5866
      vertex -0.484549 0.452447 1.5866
      vertex -0.484549 0.547552 1.5866
    endloop
  endfacet
  facet normal 0 0 1
    outer loop
      vertex -0.484549 0.452447 1.5866
      vertex -0.54045 0.529388 1.5866
      vertex -0.54045 0.470611 1.5866
    endloop
  endfacet
  facet normal -0.279989 0.861686 -0.423206
    outer loop
      vertex -0.54045 0.529388 1.4134
      vertex -0.469098 0.595105 1.5
      vertex -0.484549 0.547552 1.4134
    endloop
  endfacet
  facet normal -0.279979 0.861685 -0.423214
    outer loop
      vertex -0.469098 0.595105 1.5
      vertex -0.54045 0.529388 1.4134
      vertex -0.580901 0.558778 1.5
    endloop
  endfacet
  facet normal 0 0 -1
    outer loop
      vertex -0.484549 0.452447 1.4134
      vertex -0.484549 0.547552 1.4134
      vertex -0.45 0.5 1.4134
    endloop
  endfacet
  facet normal 0 0 -1
    outer loop
      vertex -0.54045 0.470611 1.4134
      vertex -0.484549 0.547552 1.4134
      vertex -0.484549 0.452447 1.4134
    endloop
  endfacet
  facet normal 0 0 -1
    outer loop
      vertex -0.484549 0.547552 1.4134
      vertex -0.54045 0.470611 1.4134
      vertex -0.54045 0.529388 1.4134
    endloop
  endfacet
  facet normal 0.733002 -0.532553 -0.423197
    outer loop
      vertex -0.9 1 1
      vertex -0.984549 0.952447 0.913397
      vertex -0.95 1 0.913397
    endloop
  endfacet
  facet normal 0.732997 0.532527 0.423239
    outer loop
      vertex -0.969098 1.09511 1
      vertex -0.984549 1.04755 1.0866
      vertex -0.9 1 1
    endloop
  endfacet
  facet normal 0.732984 0.532574 0.423201
    outer loop
      vertex -0.9 1 1
      vertex -0.984549 1.04755 1.0866
      vertex -0.95 1 1.0866
    endloop
  endfacet
  facet normal -0.906036 0 0.4232
    outer loop
      vertex -1.0809 1.05878 1
      vertex -1.04045 0.970611 1.0866
      vertex -1.04045 1.02939 1.0866
    endloop
  endfacet
  facet normal -0.906036 0 0.4232
    outer loop
      vertex -1.04045 0.970611 1.0866
      vertex -1.0809 1.05878 1
      vertex -1.0809 0.941221 1
    endloop
  endfacet
  facet normal 0.733002 -0.532553 -0.423197
    outer loop
      vertex -0.969098 0.904894 1
      vertex -0.984549 0.952447 0.913397
      vertex -0.9 1 1
    endloop
  endfacet
  facet normal -0.906042 0 -0.423188
    outer loop
      vertex -1.04045 0.970611 0.913397
      vertex -1.0809 1.05878 1
      vertex -1.04045 1.02939 0.913397
    endloop
  endfacet
  facet normal -0.906042 -0 -0.423188
    outer loop
      vertex -1.0809 1.05878 1
      vertex -1.04045 0.970611 0.913397
      vertex -1.0809 0.941221 1
    endloop
  endfacet
  facet normal -0.279983 -0.861691 -0.4232
    outer loop
      vertex -1.04045 0.970611 0.913397
      vertex -0.969098 0.904894 1
      vertex -1.0809 0.941221 1
    endloop
  endfacet
  facet normal -0.279991 -0.861691 -0.423194
    outer loop
      vertex -0.969098 0.904894 1
      vertex -1.04045 0.970611 0.913397
      vertex -0.984549 0.952447 0.913397
    endloop
  endfacet
  facet normal -0.279923 0.861671 0.42328
    outer loop
      vertex -0.969098 1.09511 1
      vertex -1.04045 1.02939 1.0866
      vertex -0.984549 1.04755 1.0866
    endloop
  endfacet
  facet normal -0.280001 0.861676 0.423218
    outer loop
      vertex -1.04045 1.02939 1.0866
      vertex -0.969098 1.09511 1
      vertex -1.0809 1.05878 1
    endloop
  endfacet
  facet normal 0.732997 -0.53255 0.423209
    outer loop
      vertex -0.9 1 1
      vertex -0.984549 0.952447 1.0866
      vertex -0.969098 0.904894 1
    endloop
  endfacet
  facet normal 0.732997 -0.53255 0.423209
    outer loop
      vertex -0.95 1 1.0866
      vertex -0.984549 0.952447 1.0866
      vertex -0.9 1 1
    endloop
  endfacet
  facet normal 0.733001 0.53253 -0.423227
    outer loop
      vertex -0.9 1 1
      vertex -0.984549 1.04755 0.913397
      vertex -0.969098 1.09511 1
    endloop
  endfacet
  facet normal 0.732989 0.532577 -0.423189
    outer loop
      vertex -0.95 1 0.913397
      vertex -0.984549 1.04755 0.913397
      vertex -0.9 1 1
    endloop
  endfacet
  facet normal -0.279981 -0.861686 0.423212
    outer loop
      vertex -0.969098 0.904894 1
      vertex -1.04045 0.970611 1.0866
      vertex -1.0809 0.941221 1
    endloop
  endfacet
  facet normal -0.279989 -0.861686 0.423206
    outer loop
      vertex -1.04045 0.970611 1.0866
      vertex -0.969098 0.904894 1
      vertex -0.984549 0.952447 1.0866
    endloop
  endfacet
  facet normal 0 0 1
    outer loop
      vertex -0.984549 1.04755 1.0866
      vertex -0.984549 0.952447 1.0866
      vertex -0.95 1 1.0866
    endloop
  endfacet
  facet normal -0 0 1
    outer loop
      vertex -1.04045 1.02939 1.0866
      vertex -0.984549 0.952447 1.0866
      vertex -0.984549 1.04755 1.0866
    endloop
  endfacet
  facet normal 0 0 1
    outer loop
      vertex -0.984549 0.952447 1.0866
      vertex -1.04045 1.02939 1.0866
      vertex -1.04045 0.970611 1.0866
    endloop
  endfacet
  facet normal -0.279924 0.861677 -0.423268
    outer loop
      vertex -1.04045 1.02939 0.913397
      vertex -0.969098 1.09511 1
      vertex -0.984549 1.04755 0.913397
    endloop
  endfacet
  facet normal -0.280003 0.861681 -0.423206
    outer loop
      vertex -0.969098 1.09511 1
      vertex -1.04045 1.02939 0.913397
      vertex -1.0809 1.05878 1
    endloop
  endfacet
  facet normal 0 0 -1
    outer loop
      vertex -0.984549 0.952447 0.913397
      vertex -0.984549 1.04755 0.913397
      vertex -0.95 1 0.913397
    endloop
  endfacet
  facet normal 0 0 -1
    outer loop
      vertex -1.04045 0.970611 0.913397
      vertex -0.984549 1.04755 0.913397
      vertex -0.984549 0.952447 0.913397
    endloop
  endfacet
  facet normal 0 0 -1
    outer loop
      vertex -0.984549 1.04755 0.913397
      vertex -1.04045 0.970611 0.913397
      vertex -1.04045 1.02939 0.913397
    endloop
  endfacet
  facet normal -0.27998 -0.861691 -0.423202
    outer loop
      vertex 0.459549 -0.529388 0.413397
      vertex 0.530901 -0.595105 0.5
      vertex 0.419098 -0.558778 0.5
    endloop
  endfacet
  facet normal -0.279991 -0.861691 -0.423194
    outer loop
      vertex 0.530901 -0.595105 0.5
      vertex 0.459549 -0.529388 0.413397
      vertex 0.51545 -0.547552 0.413397
    endloop
  endfacet
  facet normal 0 0 1
    outer loop
      vertex 0.51545 -0.452447 0.586602
      vertex 0.51545 -0.547552 0.586602
      vertex 0.549999 -0.5 0.586602
    endloop
  endfacet
  facet normal -0 0 1
    outer loop
      vertex 0.459549 -0.470611 0.586602
      vertex 0.51545 -0.547552 0.586602
      vertex 0.51545 -0.452447 0.586602
    endloop
  endfacet
  facet normal 0 0 1
    outer loop
      vertex 0.51545 -0.547552 0.586602
      vertex 0.459549 -0.470611 0.586602
      vertex 0.459549 -0.529388 0.586602
    endloop
  endfacet
  facet normal 0.733001 0.532552 0.423201
    outer loop
      vertex 0.530901 -0.404894 0.5
      vertex 0.51545 -0.452447 0.586602
      vertex 0.599999 -0.5 0.5
    endloop
  endfacet
  facet normal 0.733001 0.532552 0.423201
    outer loop
      vertex 0.599999 -0.5 0.5
      vertex 0.51545 -0.452447 0.586602
      vertex 0.549999 -0.5 0.586602
    endloop
  endfacet
  facet normal -0.906036 0 0.423201
    outer loop
      vertex 0.419098 -0.441221 0.5
      vertex 0.459549 -0.529388 0.586602
      vertex 0.459549 -0.470611 0.586602
    endloop
  endfacet
  facet normal -0.906036 0 0.423201
    outer loop
      vertex 0.459549 -0.529388 0.586602
      vertex 0.419098 -0.441221 0.5
      vertex 0.419098 -0.558778 0.5
    endloop
  endfacet
  facet normal -0.27998 -0.861689 0.423206
    outer loop
      vertex 0.530901 -0.595105 0.5
      vertex 0.459549 -0.529388 0.586602
      vertex 0.419098 -0.558778 0.5
    endloop
  endfacet
  facet normal -0.27999 -0.86169 0.423198
    outer loop
      vertex 0.459549 -0.529388 0.586602
      vertex 0.530901 -0.595105 0.5
      vertex 0.51545 -0.547552 0.586602
    endloop
  endfacet
  facet normal -0.906038 0 -0.423197
    outer loop
      vertex 0.459549 -0.529388 0.413397
      vertex 0.419098 -0.441221 0.5
      vertex 0.459549 -0.470611 0.413397
    endloop
  endfacet
  facet normal -0.906038 -0 -0.423197
    outer loop
      vertex 0.419098 -0.441221 0.5
      vertex 0.459549 -0.529388 0.413397
      vertex 0.419098 -0.558778 0.5
    endloop
  endfacet
  facet normal -0.27999 0.86169 0.423198
    outer loop
      vertex 0.530901 -0.404894 0.5
      vertex 0.459549 -0.470611 0.586602
      vertex 0.51545 -0.452447 0.586602
    endloop
  endfacet
  facet normal -0.27998 0.861689 0.423206
    outer loop
      vertex 0.459549 -0.470611 0.586602
      vertex 0.530901 -0.404894 0.5
      vertex 0.419098 -0.441221 0.5
    endloop
  endfacet
  facet normal 0.732998 -0.532561 -0.423194
    outer loop
      vertex 0.599999 -0.5 0.5
      vertex 0.51545 -0.547552 0.413397
      vertex 0.549999 -0.5 0.413397
    endloop
  endfacet
  facet normal -0.279991 0.861691 -0.423194
    outer loop
      vertex 0.459549 -0.470611 0.413397
      vertex 0.530901 -0.404894 0.5
      vertex 0.51545 -0.452447 0.413397
    endloop
  endfacet
  facet normal -0.27998 0.861691 -0.423202
    outer loop
      vertex 0.530901 -0.404894 0.5
      vertex 0.459549 -0.470611 0.413397
      vertex 0.419098 -0.441221 0.5
    endloop
  endfacet
  facet normal 0.732999 -0.532556 -0.423198
    outer loop
      vertex 0.530901 -0.595105 0.5
      vertex 0.51545 -0.547552 0.413397
      vertex 0.599999 -0.5 0.5
    endloop
  endfacet
  facet normal 0.733002 0.532553 -0.423197
    outer loop
      vertex 0.599999 -0.5 0.5
      vertex 0.51545 -0.452447 0.413397
      vertex 0.530901 -0.404894 0.5
    endloop
  endfacet
  facet normal 0.733002 0.532553 -0.423197
    outer loop
      vertex 0.549999 -0.5 0.413397
      vertex 0.51545 -0.452447 0.413397
      vertex 0.599999 -0.5 0.5
    endloop
  endfacet
  facet normal 0.732997 -0.532555 0.423202
    outer loop
      vertex 0.599999 -0.5 0.5
      vertex 0.51545 -0.547552 0.586602
      vertex 0.530901 -0.595105 0.5
    endloop
  endfacet
  facet normal 0.732996 -0.53256 0.423198
    outer loop
      vertex 0.549999 -0.5 0.586602
      vertex 0.51545 -0.547552 0.586602
      vertex 0.599999 -0.5 0.5
    endloop
  endfacet
  facet normal 0 0 -1
    outer loop
      vertex 0.51545 -0.547552 0.413397
      vertex 0.51545 -0.452447 0.413397
      vertex 0.549999 -0.5 0.413397
    endloop
  endfacet
  facet normal 0 0 -1
    outer loop
      vertex 0.459549 -0.529388 0.413397
      vertex 0.51545 -0.452447 0.413397
      vertex 0.51545 -0.547552 0.413397
    endloop
  endfacet
  facet normal 0 0 -1
    outer loop
      vertex 0.51545 -0.452447 0.413397
      vertex 0.459549 -0.529388 0.413397
      vertex 0.459549 -0.470611 0.413397
    endloop
  endfacet
  facet normal -0.279979 -0.861685 -0.423214
    outer loop
      vertex 0.459549 -0.529388 1.4134
      vertex 0.530901 -0.595105 1.5
      vertex 0.419098 -0.558778 1.5
    endloop
  endfacet
  facet normal -0.279989 -0.861686 -0.423206
    outer loop
      vertex 0.530901 -0.595105 1.5
      vertex 0.459549 -0.529388 1.4134
      vertex 0.51545 -0.547552 1.4134
    endloop
  endfacet
  facet normal 0 0 -1
    outer loop
      vertex 0.51545 -0.547552 1.4134
      vertex 0.51545 -0.452447 1.4134
      vertex 0.549999 -0.5 1.4134
    endloop
  endfacet
  facet normal 0 0 -1
    outer loop
      vertex 0.459549 -0.529388 1.4134
      vertex 0.51545 -0.452447 1.4134
      vertex 0.51545 -0.547552 1.4134
    endloop
  endfacet
  facet normal 0 0 -1
    outer loop
      vertex 0.51545 -0.452447 1.4134
      vertex 0.459549 -0.529388 1.4134
      vertex 0.459549 -0.470611 1.4134
    endloop
  endfacet
  facet normal 0 0 1
    outer loop
      vertex 0.51545 -0.452447 1.5866
      vertex 0.51545 -0.547552 1.5866
      vertex 0.549999 -0.5 1.5866
    endloop
  endfacet
  facet normal -0 0 1
    outer loop
      vertex 0.459549 -0.470611 1.5866
      vertex 0.51545 -0.547552 1.5866
      vertex 0.51545 -0.452447 1.5866
    endloop
  endfacet
  facet normal 0 0 1
    outer loop
      vertex 0.51545 -0.547552 1.5866
      vertex 0.459549 -0.470611 1.5866
      vertex 0.459549 -0.529388 1.5866
    endloop
  endfacet
  facet normal 0.732997 0.53255 0.423209
    outer loop
      vertex 0.530901 -0.404894 1.5
      vertex 0.51545 -0.452447 1.5866
      vertex 0.599999 -0.5 1.5
    endloop
  endfacet
  facet normal 0.732997 0.53255 0.423209
    outer loop
      vertex 0.599999 -0.5 1.5
      vertex 0.51545 -0.452447 1.5866
      vertex 0.549999 -0.5 1.5866
    endloop
  endfacet
  facet normal -0.906032 0 0.423209
    outer loop
      vertex 0.419098 -0.441221 1.5
      vertex 0.459549 -0.529388 1.5866
      vertex 0.459549 -0.470611 1.5866
    endloop
  endfacet
  facet normal -0.906032 0 0.423209
    outer loop
      vertex 0.459549 -0.529388 1.5866
      vertex 0.419098 -0.441221 1.5
      vertex 0.419098 -0.558778 1.5
    endloop
  endfacet
  facet normal -0.279989 0.861686 0.423206
    outer loop
      vertex 0.530901 -0.404894 1.5
      vertex 0.459549 -0.470611 1.5866
      vertex 0.51545 -0.452447 1.5866
    endloop
  endfacet
  facet normal -0.279979 0.861685 0.423214
    outer loop
      vertex 0.459549 -0.470611 1.5866
      vertex 0.530901 -0.404894 1.5
      vertex 0.419098 -0.441221 1.5
    endloop
  endfacet
  facet normal -0.279979 -0.861685 0.423214
    outer loop
      vertex 0.530901 -0.595105 1.5
      vertex 0.459549 -0.529388 1.5866
      vertex 0.419098 -0.558778 1.5
    endloop
  endfacet
  facet normal -0.279989 -0.861686 0.423206
    outer loop
      vertex 0.459549 -0.529388 1.5866
      vertex 0.530901 -0.595105 1.5
      vertex 0.51545 -0.547552 1.5866
    endloop
  endfacet
  facet normal -0.906032 0 -0.423209
    outer loop
      vertex 0.459549 -0.529388 1.4134
      vertex 0.419098 -0.441221 1.5
      vertex 0.459549 -0.470611 1.4134
    endloop
  endfacet
  facet normal -0.906032 -0 -0.423209
    outer loop
      vertex 0.419098 -0.441221 1.5
      vertex 0.459549 -0.529388 1.4134
      vertex 0.419098 -0.558778 1.5
    endloop
  endfacet
  facet normal 0.732993 -0.532558 -0.423206
    outer loop
      vertex 0.599999 -0.5 1.5
      vertex 0.51545 -0.547552 1.4134
      vertex 0.549999 -0.5 1.4134
    endloop
  endfacet
  facet normal -0.279989 0.861686 -0.423206
    outer loop
      vertex 0.459549 -0.470611 1.4134
      vertex 0.530901 -0.404894 1.5
      vertex 0.51545 -0.452447 1.4134
    endloop
  endfacet
  facet normal -0.279979 0.861685 -0.423214
    outer loop
      vertex 0.530901 -0.404894 1.5
      vertex 0.459549 -0.470611 1.4134
      vertex 0.419098 -0.441221 1.5
    endloop
  endfacet
  facet normal 0.732994 -0.532553 -0.42321
    outer loop
      vertex 0.530901 -0.595105 1.5
      vertex 0.51545 -0.547552 1.4134
      vertex 0.599999 -0.5 1.5
    endloop
  endfacet
  facet normal 0.732997 0.53255 -0.423209
    outer loop
      vertex 0.599999 -0.5 1.5
      vertex 0.51545 -0.452447 1.4134
      vertex 0.530901 -0.404894 1.5
    endloop
  endfacet
  facet normal 0.732997 0.53255 -0.423209
    outer loop
      vertex 0.549999 -0.5 1.4134
      vertex 0.51545 -0.452447 1.4134
      vertex 0.599999 -0.5 1.5
    endloop
  endfacet
  facet normal 0.732994 -0.532553 0.42321
    outer loop
      vertex 0.599999 -0.5 1.5
      vertex 0.51545 -0.547552 1.5866
      vertex 0.530901 -0.595105 1.5
    endloop
  endfacet
  facet normal 0.732993 -0.532558 0.423206
    outer loop
      vertex 0.549999 -0.5 1.5866
      vertex 0.51545 -0.547552 1.5866
      vertex 0.599999 -0.5 1.5
    endloop
  endfacet
  facet normal 0.733001 -0.532552 -0.423201
    outer loop
      vertex 0.599999 0.5 -0.5
      vertex 0.51545 0.452447 -0.586602
      vertex 0.549999 0.5 -0.586602
    endloop
  endfacet
  facet normal 0.732999 0.532556 0.423198
    outer loop
      vertex 0.530901 0.595105 -0.5
      vertex 0.51545 0.547552 -0.413397
      vertex 0.599999 0.5 -0.5
    endloop
  endfacet
  facet normal 0.732998 0.532561 0.423194
    outer loop
      vertex 0.599999 0.5 -0.5
      vertex 0.51545 0.547552 -0.413397
      vertex 0.549999 0.5 -0.413397
    endloop
  endfacet
  facet normal -0.906038 0 0.423197
    outer loop
      vertex 0.419098 0.558778 -0.5
      vertex 0.459549 0.470611 -0.413397
      vertex 0.459549 0.529388 -0.413397
    endloop
  endfacet
  facet normal -0.906038 0 0.423197
    outer loop
      vertex 0.459549 0.470611 -0.413397
      vertex 0.419098 0.558778 -0.5
      vertex 0.419098 0.441221 -0.5
    endloop
  endfacet
  facet normal 0.733001 -0.532552 -0.423201
    outer loop
      vertex 0.530901 0.404894 -0.5
      vertex 0.51545 0.452447 -0.586602
      vertex 0.599999 0.5 -0.5
    endloop
  endfacet
  facet normal -0.906036 0 -0.423201
    outer loop
      vertex 0.459549 0.470611 -0.586602
      vertex 0.419098 0.558778 -0.5
      vertex 0.459549 0.529388 -0.586602
    endloop
  endfacet
  facet normal -0.906036 -0 -0.423201
    outer loop
      vertex 0.419098 0.558778 -0.5
      vertex 0.459549 0.470611 -0.586602
      vertex 0.419098 0.441221 -0.5
    endloop
  endfacet
  facet normal -0.27998 -0.861689 -0.423206
    outer loop
      vertex 0.459549 0.470611 -0.586602
      vertex 0.530901 0.404894 -0.5
      vertex 0.419098 0.441221 -0.5
    endloop
  endfacet
  facet normal -0.27999 -0.86169 -0.423198
    outer loop
      vertex 0.530901 0.404894 -0.5
      vertex 0.459549 0.470611 -0.586602
      vertex 0.51545 0.452447 -0.586602
    endloop
  endfacet
  facet normal -0.279991 0.861691 0.423194
    outer loop
      vertex 0.530901 0.595105 -0.5
      vertex 0.459549 0.529388 -0.413397
      vertex 0.51545 0.547552 -0.413397
    endloop
  endfacet
  facet normal -0.27998 0.861691 0.423202
    outer loop
      vertex 0.459549 0.529388 -0.413397
      vertex 0.530901 0.595105 -0.5
      vertex 0.419098 0.558778 -0.5
    endloop
  endfacet
  facet normal 0.733002 -0.532553 0.423197
    outer loop
      vertex 0.599999 0.5 -0.5
      vertex 0.51545 0.452447 -0.413397
      vertex 0.530901 0.404894 -0.5
    endloop
  endfacet
  facet normal 0.733002 -0.532553 0.423197
    outer loop
      vertex 0.549999 0.5 -0.413397
      vertex 0.51545 0.452447 -0.413397
      vertex 0.599999 0.5 -0.5
    endloop
  endfacet
  facet normal 0.732997 0.532555 -0.423202
    outer loop
      vertex 0.599999 0.5 -0.5
      vertex 0.51545 0.547552 -0.586602
      vertex 0.530901 0.595105 -0.5
    endloop
  endfacet
  facet normal 0.732996 0.53256 -0.423198
    outer loop
      vertex 0.549999 0.5 -0.586602
      vertex 0.51545 0.547552 -0.586602
      vertex 0.599999 0.5 -0.5
    endloop
  endfacet
  facet normal -0.27998 -0.861691 0.423202
    outer loop
      vertex 0.530901 0.404894 -0.5
      vertex 0.459549 0.470611 -0.413397
      vertex 0.419098 0.441221 -0.5
    endloop
  endfacet
  facet normal -0.279991 -0.861691 0.423194
    outer loop
      vertex 0.459549 0.470611 -0.413397
      vertex 0.530901 0.404894 -0.5
      vertex 0.51545 0.452447 -0.413397
    endloop
  endfacet
  facet normal 0 0 1
    outer loop
      vertex 0.51545 0.547552 -0.413397
      vertex 0.51545 0.452447 -0.413397
      vertex 0.549999 0.5 -0.413397
    endloop
  endfacet
  facet normal -0 0 1
    outer loop
      vertex 0.459549 0.529388 -0.413397
      vertex 0.51545 0.452447 -0.413397
      vertex 0.51545 0.547552 -0.413397
    endloop
  endfacet
  facet normal 0 0 1
    outer loop
      vertex 0.51545 0.452447 -0.413397
      vertex 0.459549 0.529388 -0.413397
      vertex 0.459549 0.470611 -0.413397
    endloop
  endfacet
  facet normal -0.27999 0.86169 -0.423198
    outer loop
      vertex 0.459549 0.529388 -0.586602
      vertex 0.530901 0.595105 -0.5
      vertex 0.51545 0.547552 -0.586602
    endloop
  endfacet
  facet normal -0.27998 0.861689 -0.423206
    outer loop
      vertex 0.530901 0.595105 -0.5
      vertex 0.459549 0.529388 -0.586602
      vertex 0.419098 0.558778 -0.5
    endloop
  endfacet
  facet normal 0 0 -1
    outer loop
      vertex 0.51545 0.452447 -0.586602
      vertex 0.51545 0.547552 -0.586602
      vertex 0.549999 0.5 -0.586602
    endloop
  endfacet
  facet normal 0 0 -1
    outer loop
      vertex 0.459549 0.470611 -0.586602
      vertex 0.51545 0.547552 -0.586602
      vertex 0.51545 0.452447 -0.586602
    endloop
  endfacet
  facet normal 0 0 -1
    outer loop
      vertex 0.51545 0.547552 -0.586602
      vertex 0.459549 0.470611 -0.586602
      vertex 0.459549 0.529388 -0.586602
    endloop
  endfacet
  facet normal -0.279985 0.86169 -0.423201
    outer loop
      vertex 0.0154505 0.0475521 -0.0866022
      vertex -0.0809011 0.0587778 0
      vertex 0.030901 0.0951052 0
    endloop
  endfacet
  facet normal 0.732998 -0.532556 -0.4232
    outer loop
      vertex 0.0999994 0 0
      vertex 0.0154505 -0.0475521 -0.0866022
      vertex 0.0499992 0 -0.0866022
    endloop
  endfacet
  facet normal 0.732998 0.532557 0.423199
    outer loop
      vertex 0.030901 0.0951052 0
      vertex 0.0154505 0.0475521 0.0866022
      vertex 0.0999994 0 0
    endloop
  endfacet
  facet normal 0.732998 0.532556 0.4232
    outer loop
      vertex 0.0999994 0 0
      vertex 0.0154505 0.0475521 0.0866022
      vertex 0.0499992 0 0.0866022
    endloop
  endfacet
  facet normal -0.906036 0 0.4232
    outer loop
      vertex -0.0809011 0.0587778 0
      vertex -0.0404501 -0.0293884 0.0866022
      vertex -0.0404501 0.0293884 0.0866022
    endloop
  endfacet
  facet normal -0.906036 0 0.4232
    outer loop
      vertex -0.0404501 -0.0293884 0.0866022
      vertex -0.0809011 0.0587778 0
      vertex -0.0809011 -0.0587778 0
    endloop
  endfacet
  facet normal -0.279987 0.861688 0.423202
    outer loop
      vertex 0.0154505 0.0475521 0.0866022
      vertex -0.0809011 0.0587778 0
      vertex -0.0404501 0.0293884 0.0866022
    endloop
  endfacet
  facet normal -0.279985 -0.86169 -0.423201
    outer loop
      vertex 0.030901 -0.0951052 0
      vertex -0.0809011 -0.0587778 0
      vertex 0.0154505 -0.0475521 -0.0866022
    endloop
  endfacet
  facet normal -0.906036 0 -0.4232
    outer loop
      vertex -0.0404501 -0.0293884 -0.0866022
      vertex -0.0809011 0.0587778 0
      vertex -0.0404501 0.0293884 -0.0866022
    endloop
  endfacet
  facet normal -0.906036 -0 -0.4232
    outer loop
      vertex -0.0809011 0.0587778 0
      vertex -0.0404501 -0.0293884 -0.0866022
      vertex -0.0809011 -0.0587778 0
    endloop
  endfacet
  facet normal 0.732998 -0.532557 -0.423199
    outer loop
      vertex 0.030901 -0.0951052 0
      vertex 0.0154505 -0.0475521 -0.0866022
      vertex 0.0999994 0 0
    endloop
  endfacet
  facet normal -0.279985 0.86169 0.423201
    outer loop
      vertex 0.030901 0.0951052 0
      vertex -0.0809011 0.0587778 0
      vertex 0.0154505 0.0475521 0.0866022
    endloop
  endfacet
  facet normal 0.732998 -0.532557 0.423199
    outer loop
      vertex 0.0999994 0 0
      vertex 0.0154505 -0.0475521 0.0866022
      vertex 0.030901 -0.0951052 0
    endloop
  endfacet
  facet normal 0.732998 -0.532556 0.4232
    outer loop
      vertex 0.0499992 0 0.0866022
      vertex 0.0154505 -0.0475521 0.0866022
      vertex 0.0999994 0 0
    endloop
  endfacet
  facet normal -0.279985 -0.86169 0.423201
    outer loop
      vertex 0.0154505 -0.0475521 0.0866022
      vertex -0.0809011 -0.0587778 0
      vertex 0.030901 -0.0951052 0
    endloop
  endfacet
  facet normal 0.732998 0.532557 -0.423199
    outer loop
      vertex 0.0999994 0 0
      vertex 0.0154505 0.0475521 -0.0866022
      vertex 0.030901 0.0951052 0
    endloop
  endfacet
  facet normal 0.732998 0.532556 -0.4232
    outer loop
      vertex 0.0499992 0 -0.0866022
      vertex 0.0154505 0.0475521 -0.0866022
      vertex 0.0999994 0 0
    endloop
  endfacet
  facet normal -0.279987 -0.861688 0.423202
    outer loop
      vertex -0.0404501 -0.0293884 0.0866022
      vertex -0.0809011 -0.0587778 0
      vertex 0.0154505 -0.0475521 0.0866022
    endloop
  endfacet
  facet normal 0 0 1
    outer loop
      vertex 0.0154505 0.0475521 0.0866022
      vertex 0.0154505 -0.0475521 0.0866022
      vertex 0.0499992 0 0.0866022
    endloop
  endfacet
  facet normal -0 0 1
    outer loop
      vertex -0.0404501 0.0293884 0.0866022
      vertex 0.0154505 -0.0475521 0.0866022
      vertex 0.0154505 0.0475521 0.0866022
    endloop
  endfacet
  facet normal 0 0 1
    outer loop
      vertex 0.0154505 -0.0475521 0.0866022
      vertex -0.0404501 0.0293884 0.0866022
      vertex -0.0404501 -0.0293884 0.0866022
    endloop
  endfacet
  facet normal -0.279987 0.861688 -0.423202
    outer loop
      vertex -0.0404501 0.0293884 -0.0866022
      vertex -0.0809011 0.0587778 0
      vertex 0.0154505 0.0475521 -0.0866022
    endloop
  endfacet
  facet normal -0.279987 -0.861688 -0.423202
    outer loop
      vertex 0.0154505 -0.0475521 -0.0866022
      vertex -0.0809011 -0.0587778 0
      vertex -0.0404501 -0.0293884 -0.0866022
    endloop
  endfacet
  facet normal 0 0 -1
    outer loop
      vertex 0.0154505 -0.0475521 -0.0866022
      vertex 0.0154505 0.0475521 -0.0866022
      vertex 0.0499992 0 -0.0866022
    endloop
  endfacet
  facet normal 0 0 -1
    outer loop
      vertex -0.0404501 -0.0293884 -0.0866022
      vertex 0.0154505 0.0475521 -0.0866022
      vertex 0.0154505 -0.0475521 -0.0866022
    endloop
  endfacet
  facet normal 0 0 -1
    outer loop
      vertex 0.0154505 0.0475521 -0.0866022
      vertex -0.0404501 -0.0293884 -0.0866022
      vertex -0.0404501 0.0293884 -0.0866022
    endloop
  endfacet
  facet normal 0.733002 -0.532553 -0.423197
    outer loop
      vertex 0.599999 0.5 0.5
      vertex 0.51545 0.452447 0.413397
      vertex 0.549999 0.5 0.413397
    endloop
  endfacet
  facet normal 0.732997 0.532555 0.423202
    outer loop
      vertex 0.530901 0.595105 0.5
      vertex 0.51545 0.547552 0.586602
      vertex 0.599999 0.5 0.5
    endloop
  endfacet
  facet normal 0.732996 0.53256 0.423198
    outer loop
      vertex 0.599999 0.5 0.5
      vertex 0.51545 0.547552 0.586602
      vertex 0.549999 0.5 0.586602
    endloop
  endfacet
  facet normal -0.906036 0 0.423201
    outer loop
      vertex 0.419098 0.558778 0.5
      vertex 0.459549 0.470611 0.586602
      vertex 0.459549 0.529388 0.586602
    endloop
  endfacet
  facet normal -0.906036 0 0.423201
    outer loop
      vertex 0.459549 0.470611 0.586602
      vertex 0.419098 0.558778 0.5
      vertex 0.419098 0.441221 0.5
    endloop
  endfacet
  facet normal 0.733002 -0.532553 -0.423197
    outer loop
      vertex 0.530901 0.404894 0.5
      vertex 0.51545 0.452447 0.413397
      vertex 0.599999 0.5 0.5
    endloop
  endfacet
  facet normal -0.906038 0 -0.423197
    outer loop
      vertex 0.459549 0.470611 0.413397
      vertex 0.419098 0.558778 0.5
      vertex 0.459549 0.529388 0.413397
    endloop
  endfacet
  facet normal -0.906038 -0 -0.423197
    outer loop
      vertex 0.419098 0.558778 0.5
      vertex 0.459549 0.470611 0.413397
      vertex 0.419098 0.441221 0.5
    endloop
  endfacet
  facet normal -0.27998 -0.861691 -0.423202
    outer loop
      vertex 0.459549 0.470611 0.413397
      vertex 0.530901 0.404894 0.5
      vertex 0.419098 0.441221 0.5
    endloop
  endfacet
  facet normal -0.279991 -0.861691 -0.423194
    outer loop
      vertex 0.530901 0.404894 0.5
      vertex 0.459549 0.470611 0.413397
      vertex 0.51545 0.452447 0.413397
    endloop
  endfacet
  facet normal -0.27999 0.86169 0.423198
    outer loop
      vertex 0.530901 0.595105 0.5
      vertex 0.459549 0.529388 0.586602
      vertex 0.51545 0.547552 0.586602
    endloop
  endfacet
  facet normal -0.27998 0.861689 0.423206
    outer loop
      vertex 0.459549 0.529388 0.586602
      vertex 0.530901 0.595105 0.5
      vertex 0.419098 0.558778 0.5
    endloop
  endfacet
  facet normal 0.733001 -0.532552 0.423201
    outer loop
      vertex 0.599999 0.5 0.5
      vertex 0.51545 0.452447 0.586602
      vertex 0.530901 0.404894 0.5
    endloop
  endfacet
  facet normal 0.733001 -0.532552 0.423201
    outer loop
      vertex 0.549999 0.5 0.586602
      vertex 0.51545 0.452447 0.586602
      vertex 0.599999 0.5 0.5
    endloop
  endfacet
  facet normal 0.732999 0.532556 -0.423198
    outer loop
      vertex 0.599999 0.5 0.5
      vertex 0.51545 0.547552 0.413397
      vertex 0.530901 0.595105 0.5
    endloop
  endfacet
  facet normal 0.732998 0.532561 -0.423194
    outer loop
      vertex 0.549999 0.5 0.413397
      vertex 0.51545 0.547552 0.413397
      vertex 0.599999 0.5 0.5
    endloop
  endfacet
  facet normal -0.27998 -0.861689 0.423206
    outer loop
      vertex 0.530901 0.404894 0.5
      vertex 0.459549 0.470611 0.586602
      vertex 0.419098 0.441221 0.5
    endloop
  endfacet
  facet normal -0.27999 -0.86169 0.423198
    outer loop
      vertex 0.459549 0.470611 0.586602
      vertex 0.530901 0.404894 0.5
      vertex 0.51545 0.452447 0.586602
    endloop
  endfacet
  facet normal 0 0 1
    outer loop
      vertex 0.51545 0.547552 0.586602
      vertex 0.51545 0.452447 0.586602
      vertex 0.549999 0.5 0.586602
    endloop
  endfacet
  facet normal -0 0 1
    outer loop
      vertex 0.459549 0.529388 0.586602
      vertex 0.51545 0.452447 0.586602
      vertex 0.51545 0.547552 0.586602
    endloop
  endfacet
  facet normal 0 0 1
    outer loop
      vertex 0.51545 0.452447 0.586602
      vertex 0.459549 0.529388 0.586602
      vertex 0.459549 0.470611 0.586602
    endloop
  endfacet
  facet normal -0.279991 0.861691 -0.423194
    outer loop
      vertex 0.459549 0.529388 0.413397
      vertex 0.530901 0.595105 0.5
      vertex 0.51545 0.547552 0.413397
    endloop
  endfacet
  facet normal -0.27998 0.861691 -0.423202
    outer loop
      vertex 0.530901 0.595105 0.5
      vertex 0.459549 0.529388 0.413397
      vertex 0.419098 0.558778 0.5
    endloop
  endfacet
  facet normal 0 0 -1
    outer loop
      vertex 0.51545 0.452447 0.413397
      vertex 0.51545 0.547552 0.413397
      vertex 0.549999 0.5 0.413397
    endloop
  endfacet
  facet normal 0 0 -1
    outer loop
      vertex 0.459549 0.470611 0.413397
      vertex 0.51545 0.547552 0.413397
      vertex 0.51545 0.452447 0.413397
    endloop
  endfacet
  facet normal 0 0 -1
    outer loop
      vertex 0.51545 0.547552 0.413397
      vertex 0.459549 0.470611 0.413397
      vertex 0.459549 0.529388 0.413397
    endloop
  endfacet
  facet normal -0.279986 0.861691 -0.423197
    outer loop
      vertex 0.0154505 0.0475521 0.913397
      vertex -0.0809011 0.0587778 1
      vertex 0.030901 0.0951052 1
    endloop
  endfacet
  facet normal 0.732999 -0.532556 -0.423197
    outer loop
      vertex 0.0999994 0 1
      vertex 0.0154505 -0.0475521 0.913397
      vertex 0.0499992 0 0.913397
    endloop
  endfacet
  facet normal 0.732994 0.532555 0.423207
    outer loop
      vertex 0.030901 0.0951052 1
      vertex 0.0154505 0.0475521 1.0866
      vertex 0.0999994 0 1
    endloop
  endfacet
  facet normal 0.732995 0.532553 0.423209
    outer loop
      vertex 0.0999994 0 1
      vertex 0.0154505 0.0475521 1.0866
      vertex 0.0499992 0 1.0866
    endloop
  endfacet
  facet normal -0.906032 0 0.423209
    outer loop
      vertex -0.0809011 0.0587778 1
      vertex -0.0404501 -0.0293884 1.0866
      vertex -0.0404501 0.0293884 1.0866
    endloop
  endfacet
  facet normal -0.906032 0 0.423209
    outer loop
      vertex -0.0404501 -0.0293884 1.0866
      vertex -0.0809011 0.0587778 1
      vertex -0.0809011 -0.0587778 1
    endloop
  endfacet
  facet normal -0.279986 0.861684 0.423211
    outer loop
      vertex 0.0154505 0.0475521 1.0866
      vertex -0.0809011 0.0587778 1
      vertex -0.0404501 0.0293884 1.0866
    endloop
  endfacet
  facet normal -0.279986 -0.861691 -0.423197
    outer loop
      vertex 0.030901 -0.0951052 1
      vertex -0.0809011 -0.0587778 1
      vertex 0.0154505 -0.0475521 0.913397
    endloop
  endfacet
  facet normal -0.906038 0 -0.423197
    outer loop
      vertex -0.0404501 -0.0293884 0.913397
      vertex -0.0809011 0.0587778 1
      vertex -0.0404501 0.0293884 0.913397
    endloop
  endfacet
  facet normal -0.906038 -0 -0.423197
    outer loop
      vertex -0.0809011 0.0587778 1
      vertex -0.0404501 -0.0293884 0.913397
      vertex -0.0809011 -0.0587778 1
    endloop
  endfacet
  facet normal 0.732999 -0.532558 -0.423195
    outer loop
      vertex 0.030901 -0.0951052 1
      vertex 0.0154505 -0.0475521 0.913397
      vertex 0.0999994 0 1
    endloop
  endfacet
  facet normal -0.279984 0.861686 0.423209
    outer loop
      vertex 0.030901 0.0951052 1
      vertex -0.0809011 0.0587778 1
      vertex 0.0154505 0.0475521 1.0866
    endloop
  endfacet
  facet normal 0.732994 -0.532555 0.423207
    outer loop
      vertex 0.0999994 0 1
      vertex 0.0154505 -0.0475521 1.0866
      vertex 0.030901 -0.0951052 1
    endloop
  endfacet
  facet normal 0.732995 -0.532553 0.423209
    outer loop
      vertex 0.0499992 0 1.0866
      vertex 0.0154505 -0.0475521 1.0866
      vertex 0.0999994 0 1
    endloop
  endfacet
  facet normal -0.279984 -0.861686 0.423209
    outer loop
      vertex 0.0154505 -0.0475521 1.0866
      vertex -0.0809011 -0.0587778 1
      vertex 0.030901 -0.0951052 1
    endloop
  endfacet
  facet normal 0.732999 0.532558 -0.423195
    outer loop
      vertex 0.0999994 0 1
      vertex 0.0154505 0.0475521 0.913397
      vertex 0.030901 0.0951052 1
    endloop
  endfacet
  facet normal 0.732999 0.532556 -0.423197
    outer loop
      vertex 0.0499992 0 0.913397
      vertex 0.0154505 0.0475521 0.913397
      vertex 0.0999994 0 1
    endloop
  endfacet
  facet normal -0.279986 -0.861684 0.423211
    outer loop
      vertex -0.0404501 -0.0293884 1.0866
      vertex -0.0809011 -0.0587778 1
      vertex 0.0154505 -0.0475521 1.0866
    endloop
  endfacet
  facet normal 0 0 1
    outer loop
      vertex 0.0154505 0.0475521 1.0866
      vertex 0.0154505 -0.0475521 1.0866
      vertex 0.0499992 0 1.0866
    endloop
  endfacet
  facet normal -0 0 1
    outer loop
      vertex -0.0404501 0.0293884 1.0866
      vertex 0.0154505 -0.0475521 1.0866
      vertex 0.0154505 0.0475521 1.0866
    endloop
  endfacet
  facet normal 0 0 1
    outer loop
      vertex 0.0154505 -0.0475521 1.0866
      vertex -0.0404501 0.0293884 1.0866
      vertex -0.0404501 -0.0293884 1.0866
    endloop
  endfacet
  facet normal -0.279988 0.86169 -0.423199
    outer loop
      vertex -0.0404501 0.0293884 0.913397
      vertex -0.0809011 0.0587778 1
      vertex 0.0154505 0.0475521 0.913397
    endloop
  endfacet
  facet normal -0.279988 -0.86169 -0.423199
    outer loop
      vertex 0.0154505 -0.0475521 0.913397
      vertex -0.0809011 -0.0587778 1
      vertex -0.0404501 -0.0293884 0.913397
    endloop
  endfacet
  facet normal 0 0 -1
    outer loop
      vertex 0.0154505 -0.0475521 0.913397
      vertex 0.0154505 0.0475521 0.913397
      vertex 0.0499992 0 0.913397
    endloop
  endfacet
  facet normal 0 0 -1
    outer loop
      vertex -0.0404501 -0.0293884 0.913397
      vertex 0.0154505 0.0475521 0.913397
      vertex 0.0154505 -0.0475521 0.913397
    endloop
  endfacet
  facet normal 0 0 -1
    outer loop
      vertex 0.0154505 0.0475521 0.913397
      vertex -0.0404501 -0.0293884 0.913397
      vertex -0.0404501 0.0293884 0.913397
    endloop
  endfacet
  facet normal 0.733002 -0.532548 -0.423202
    outer loop
      vertex 0.0999994 1 0
      vertex 0.0154505 0.952447 -0.0866022
      vertex 0.0499992 1 -0.0866022
    endloop
  endfacet
  facet normal 0.733 0.532532 0.423227
    outer loop
      vertex 0.030901 1.09511 0
      vertex 0.0154505 1.04755 0.0866022
      vertex 0.0999994 1 0
    endloop
  endfacet
  facet normal 0.732989 0.532572 0.423195
    outer loop
      vertex 0.0999994 1 0
      vertex 0.0154505 1.04755 0.0866022
      vertex 0.0499992 1 0.0866022
    endloop
  endfacet
  facet normal -0.906036 0 0.4232
    outer loop
      vertex -0.0809011 1.05878 0
      vertex -0.0404501 0.970611 0.0866022
      vertex -0.0404501 1.02939 0.0866022
    endloop
  endfacet
  facet normal -0.906036 0 0.4232
    outer loop
      vertex -0.0404501 0.970611 0.0866022
      vertex -0.0809011 1.05878 0
      vertex -0.0809011 0.941221 0
    endloop
  endfacet
  facet normal -0.279937 0.86171 0.423192
    outer loop
      vertex 0.0154505 1.04755 0.0866022
      vertex -0.0809011 1.05878 0
      vertex -0.0404501 1.02939 0.0866022
    endloop
  endfacet
  facet normal 0.733 -0.532555 -0.423197
    outer loop
      vertex 0.030901 0.904894 0
      vertex 0.0154505 0.952447 -0.0866022
      vertex 0.0999994 1 0
    endloop
  endfacet
  facet normal -0.279937 0.86171 -0.423192
    outer loop
      vertex -0.0404501 1.02939 -0.0866022
      vertex -0.0809011 1.05878 0
      vertex 0.0154505 1.04755 -0.0866022
    endloop
  endfacet
  facet normal -0.279996 0.861661 0.423252
    outer loop
      vertex 0.030901 1.09511 0
      vertex -0.0809011 1.05878 0
      vertex 0.0154505 1.04755 0.0866022
    endloop
  endfacet
  facet normal 0.733 -0.532555 0.423197
    outer loop
      vertex 0.0999994 1 0
      vertex 0.0154505 0.952447 0.0866022
      vertex 0.030901 0.904894 0
    endloop
  endfacet
  facet normal 0.733002 -0.532548 0.423202
    outer loop
      vertex 0.0499992 1 0.0866022
      vertex 0.0154505 0.952447 0.0866022
      vertex 0.0999994 1 0
    endloop
  endfacet
  facet normal -0.279983 -0.861691 -0.423201
    outer loop
      vertex 0.030901 0.904894 0
      vertex -0.0809011 0.941221 0
      vertex 0.0154505 0.952447 -0.0866022
    endloop
  endfacet
  facet normal -0.279996 0.861661 -0.423252
    outer loop
      vertex 0.0154505 1.04755 -0.0866022
      vertex -0.0809011 1.05878 0
      vertex 0.030901 1.09511 0
    endloop
  endfacet
  facet normal 0.733 0.532532 -0.423227
    outer loop
      vertex 0.0999994 1 0
      vertex 0.0154505 1.04755 -0.0866022
      vertex 0.030901 1.09511 0
    endloop
  endfacet
  facet normal 0.732989 0.532572 -0.423195
    outer loop
      vertex 0.0499992 1 -0.0866022
      vertex 0.0154505 1.04755 -0.0866022
      vertex 0.0999994 1 0
    endloop
  endfacet
  facet normal -0.279983 -0.861691 0.423201
    outer loop
      vertex 0.0154505 0.952447 0.0866022
      vertex -0.0809011 0.941221 0
      vertex 0.030901 0.904894 0
    endloop
  endfacet
  facet normal -0.27999 -0.861684 -0.423209
    outer loop
      vertex 0.0154505 0.952447 -0.0866022
      vertex -0.0809011 0.941221 0
      vertex -0.0404501 0.970611 -0.0866022
    endloop
  endfacet
  facet normal -0.27999 -0.861684 0.423209
    outer loop
      vertex -0.0404501 0.970611 0.0866022
      vertex -0.0809011 0.941221 0
      vertex 0.0154505 0.952447 0.0866022
    endloop
  endfacet
  facet normal 0 0 1
    outer loop
      vertex 0.0154505 1.04755 0.0866022
      vertex 0.0154505 0.952447 0.0866022
      vertex 0.0499992 1 0.0866022
    endloop
  endfacet
  facet normal -0 0 1
    outer loop
      vertex -0.0404501 1.02939 0.0866022
      vertex 0.0154505 0.952447 0.0866022
      vertex 0.0154505 1.04755 0.0866022
    endloop
  endfacet
  facet normal 0 0 1
    outer loop
      vertex 0.0154505 0.952447 0.0866022
      vertex -0.0404501 1.02939 0.0866022
      vertex -0.0404501 0.970611 0.0866022
    endloop
  endfacet
  facet normal -0.906036 0 -0.4232
    outer loop
      vertex -0.0404501 0.970611 -0.0866022
      vertex -0.0809011 1.05878 0
      vertex -0.0404501 1.02939 -0.0866022
    endloop
  endfacet
  facet normal -0.906036 -0 -0.4232
    outer loop
      vertex -0.0809011 1.05878 0
      vertex -0.0404501 0.970611 -0.0866022
      vertex -0.0809011 0.941221 0
    endloop
  endfacet
  facet normal 0 0 -1
    outer loop
      vertex 0.0154505 0.952447 -0.0866022
      vertex 0.0154505 1.04755 -0.0866022
      vertex 0.0499992 1 -0.0866022
    endloop
  endfacet
  facet normal 0 0 -1
    outer loop
      vertex -0.0404501 0.970611 -0.0866022
      vertex 0.0154505 1.04755 -0.0866022
      vertex 0.0154505 0.952447 -0.0866022
    endloop
  endfacet
  facet normal 0 0 -1
    outer loop
      vertex 0.0154505 1.04755 -0.0866022
      vertex -0.0404501 0.970611 -0.0866022
      vertex -0.0404501 1.02939 -0.0866022
    endloop
  endfacet
  facet normal 0.733003 -0.532549 -0.423199
    outer loop
      vertex 0.0999994 1 1
      vertex 0.0154505 0.952447 0.913397
      vertex 0.0499992 1 0.913397
    endloop
  endfacet
  facet normal 0.732996 0.532529 0.423236
    outer loop
      vertex 0.030901 1.09511 1
      vertex 0.0154505 1.04755 1.0866
      vertex 0.0999994 1 1
    endloop
  endfacet
  facet normal 0.732986 0.53257 0.423204
    outer loop
      vertex 0.0999994 1 1
      vertex 0.0154505 1.04755 1.0866
      vertex 0.0499992 1 1.0866
    endloop
  endfacet
  facet normal -0.906032 0 0.423209
    outer loop
      vertex -0.0809011 1.05878 1
      vertex -0.0404501 0.970611 1.0866
      vertex -0.0404501 1.02939 1.0866
    endloop
  endfacet
  facet normal -0.906032 0 0.423209
    outer loop
      vertex -0.0404501 0.970611 1.0866
      vertex -0.0809011 1.05878 1
      vertex -0.0809011 0.941221 1
    endloop
  endfacet
  facet normal -0.279936 0.861706 0.423201
    outer loop
      vertex 0.0154505 1.04755 1.0866
      vertex -0.0809011 1.05878 1
      vertex -0.0404501 1.02939 1.0866
    endloop
  endfacet
  facet normal 0.733002 -0.532556 -0.423194
    outer loop
      vertex 0.030901 0.904894 1
      vertex 0.0154505 0.952447 0.913397
      vertex 0.0999994 1 1
    endloop
  endfacet
  facet normal -0.279937 0.861711 -0.423189
    outer loop
      vertex -0.0404501 1.02939 0.913397
      vertex -0.0809011 1.05878 1
      vertex 0.0154505 1.04755 0.913397
    endloop
  endfacet
  facet normal -0.279995 0.861657 0.423261
    outer loop
      vertex 0.030901 1.09511 1
      vertex -0.0809011 1.05878 1
      vertex 0.0154505 1.04755 1.0866
    endloop
  endfacet
  facet normal 0.732997 -0.532552 0.423206
    outer loop
      vertex 0.0999994 1 1
      vertex 0.0154505 0.952447 1.0866
      vertex 0.030901 0.904894 1
    endloop
  endfacet
  facet normal 0.732999 -0.532546 0.423211
    outer loop
      vertex 0.0499992 1 1.0866
      vertex 0.0154505 0.952447 1.0866
      vertex 0.0999994 1 1
    endloop
  endfacet
  facet normal -0.279983 -0.861692 -0.423197
    outer loop
      vertex 0.030901 0.904894 1
      vertex -0.0809011 0.941221 1
      vertex 0.0154505 0.952447 0.913397
    endloop
  endfacet
  facet normal -0.279997 0.861663 -0.423249
    outer loop
      vertex 0.0154505 1.04755 0.913397
      vertex -0.0809011 1.05878 1
      vertex 0.030901 1.09511 1
    endloop
  endfacet
  facet normal 0.733001 0.532533 -0.423224
    outer loop
      vertex 0.0999994 1 1
      vertex 0.0154505 1.04755 0.913397
      vertex 0.030901 1.09511 1
    endloop
  endfacet
  facet normal 0.73299 0.532573 -0.423192
    outer loop
      vertex 0.0499992 1 0.913397
      vertex 0.0154505 1.04755 0.913397
      vertex 0.0999994 1 1
    endloop
  endfacet
  facet normal -0.279981 -0.861687 0.423209
    outer loop
      vertex 0.0154505 0.952447 1.0866
      vertex -0.0809011 0.941221 1
      vertex 0.030901 0.904894 1
    endloop
  endfacet
  facet normal -0.279991 -0.861686 -0.423205
    outer loop
      vertex 0.0154505 0.952447 0.913397
      vertex -0.0809011 0.941221 1
      vertex -0.0404501 0.970611 0.913397
    endloop
  endfacet
  facet normal -0.279989 -0.86168 0.423217
    outer loop
      vertex -0.0404501 0.970611 1.0866
      vertex -0.0809011 0.941221 1
      vertex 0.0154505 0.952447 1.0866
    endloop
  endfacet
  facet normal 0 0 1
    outer loop
      vertex 0.0154505 1.04755 1.0866
      vertex 0.0154505 0.952447 1.0866
      vertex 0.0499992 1 1.0866
    endloop
  endfacet
  facet normal -0 0 1
    outer loop
      vertex -0.0404501 1.02939 1.0866
      vertex 0.0154505 0.952447 1.0866
      vertex 0.0154505 1.04755 1.0866
    endloop
  endfacet
  facet normal 0 0 1
    outer loop
      vertex 0.0154505 0.952447 1.0866
      vertex -0.0404501 1.02939 1.0866
      vertex -0.0404501 0.970611 1.0866
    endloop
  endfacet
  facet normal -0.906038 0 -0.423197
    outer loop
      vertex -0.0404501 0.970611 0.913397
      vertex -0.0809011 1.05878 1
      vertex -0.0404501 1.02939 0.913397
    endloop
  endfacet
  facet normal -0.906038 -0 -0.423197
    outer loop
      vertex -0.0809011 1.05878 1
      vertex -0.0404501 0.970611 0.913397
      vertex -0.0809011 0.941221 1
    endloop
  endfacet
  facet normal 0 0 -1
    outer loop
      vertex 0.0154505 0.952447 0.913397
      vertex 0.0154505 1.04755 0.913397
      vertex 0.0499992 1 0.913397
    endloop
  endfacet
  facet normal 0 0 -1
    outer loop
      vertex -0.0404501 0.970611 0.913397
      vertex 0.0154505 1.04755 0.913397
      vertex 0.0154505 0.952447 0.913397
    endloop
  endfacet
  facet normal 0 0 -1
    outer loop
      vertex 0.0154505 1.04755 0.913397
      vertex -0.0404501 0.970611 0.913397
      vertex -0.0404501 1.02939 0.913397
    endloop
  endfacet
  facet normal 0.732992 -0.532571 -0.423191
    outer loop
      vertex 1.1 0 1
      vertex 1.01545 -0.0475521 0.913397
      vertex 1.05 0 0.913397
    endloop
  endfacet
  facet normal 0.732989 0.532563 0.423207
    outer loop
      vertex 1.0309 0.0951052 1
      vertex 1.01545 0.0475521 1.0866
      vertex 1.1 0 1
    endloop
  endfacet
  facet normal 0.732988 0.532568 0.423203
    outer loop
      vertex 1.1 0 1
      vertex 1.01545 0.0475521 1.0866
      vertex 1.05 0 1.0866
    endloop
  endfacet
  facet normal -0.906032 0 0.423209
    outer loop
      vertex 0.919098 0.0587778 1
      vertex 0.959549 -0.0293884 1.0866
      vertex 0.959549 0.0293884 1.0866
    endloop
  endfacet
  facet normal -0.906032 0 0.423209
    outer loop
      vertex 0.959549 -0.0293884 1.0866
      vertex 0.919098 0.0587778 1
      vertex 0.919098 -0.0587778 1
    endloop
  endfacet
  facet normal 0.732993 -0.532566 -0.423195
    outer loop
      vertex 1.0309 -0.0951052 1
      vertex 1.01545 -0.0475521 0.913397
      vertex 1.1 0 1
    endloop
  endfacet
  facet normal -0.906038 0 -0.423197
    outer loop
      vertex 0.959549 -0.0293884 0.913397
      vertex 0.919098 0.0587778 1
      vertex 0.959549 0.0293884 0.913397
    endloop
  endfacet
  facet normal -0.906038 -0 -0.423197
    outer loop
      vertex 0.919098 0.0587778 1
      vertex 0.959549 -0.0293884 0.913397
      vertex 0.919098 -0.0587778 1
    endloop
  endfacet
  facet normal -0.279986 -0.861691 -0.423199
    outer loop
      vertex 0.959549 -0.0293884 0.913397
      vertex 1.0309 -0.0951052 1
      vertex 0.919098 -0.0587778 1
    endloop
  endfacet
  facet normal -0.279986 -0.861691 -0.423199
    outer loop
      vertex 1.0309 -0.0951052 1
      vertex 0.959549 -0.0293884 0.913397
      vertex 1.01545 -0.0475521 0.913397
    endloop
  endfacet
  facet normal -0.279984 0.861685 0.423211
    outer loop
      vertex 1.0309 0.0951052 1
      vertex 0.959549 0.0293884 1.0866
      vertex 1.01545 0.0475521 1.0866
    endloop
  endfacet
  facet normal -0.279984 0.861685 0.423211
    outer loop
      vertex 0.959549 0.0293884 1.0866
      vertex 1.0309 0.0951052 1
      vertex 0.919098 0.0587778 1
    endloop
  endfacet
  facet normal 0.732989 -0.532563 0.423207
    outer loop
      vertex 1.1 0 1
      vertex 1.01545 -0.0475521 1.0866
      vertex 1.0309 -0.0951052 1
    endloop
  endfacet
  facet normal 0.732988 -0.532568 0.423203
    outer loop
      vertex 1.05 0 1.0866
      vertex 1.01545 -0.0475521 1.0866
      vertex 1.1 0 1
    endloop
  endfacet
  facet normal 0.732993 0.532566 -0.423195
    outer loop
      vertex 1.1 0 1
      vertex 1.01545 0.0475521 0.913397
      vertex 1.0309 0.0951052 1
    endloop
  endfacet
  facet normal 0.732992 0.532571 -0.423191
    outer loop
      vertex 1.05 0 0.913397
      vertex 1.01545 0.0475521 0.913397
      vertex 1.1 0 1
    endloop
  endfacet
  facet normal -0.279984 -0.861685 0.423211
    outer loop
      vertex 1.0309 -0.0951052 1
      vertex 0.959549 -0.0293884 1.0866
      vertex 0.919098 -0.0587778 1
    endloop
  endfacet
  facet normal -0.279984 -0.861685 0.423211
    outer loop
      vertex 0.959549 -0.0293884 1.0866
      vertex 1.0309 -0.0951052 1
      vertex 1.01545 -0.0475521 1.0866
    endloop
  endfacet
  facet normal 0 0 1
    outer loop
      vertex 1.01545 0.0475521 1.0866
      vertex 1.01545 -0.0475521 1.0866
      vertex 1.05 0 1.0866
    endloop
  endfacet
  facet normal -0 0 1
    outer loop
      vertex 0.959549 0.0293884 1.0866
      vertex 1.01545 -0.0475521 1.0866
      vertex 1.01545 0.0475521 1.0866
    endloop
  endfacet
  facet normal 0 0 1
    outer loop
      vertex 1.01545 -0.0475521 1.0866
      vertex 0.959549 0.0293884 1.0866
      vertex 0.959549 -0.0293884 1.0866
    endloop
  endfacet
  facet normal -0.279986 0.861691 -0.423199
    outer loop
      vertex 0.959549 0.0293884 0.913397
      vertex 1.0309 0.0951052 1
      vertex 1.01545 0.0475521 0.913397
    endloop
  endfacet
  facet normal -0.279986 0.861691 -0.423199
    outer loop
      vertex 1.0309 0.0951052 1
      vertex 0.959549 0.0293884 0.913397
      vertex 0.919098 0.0587778 1
    endloop
  endfacet
  facet normal 0 0 -1
    outer loop
      vertex 1.01545 -0.0475521 0.913397
      vertex 1.01545 0.0475521 0.913397
      vertex 1.05 0 0.913397
    endloop
  endfacet
  facet normal 0 0 -1
    outer loop
      vertex 0.959549 -0.0293884 0.913397
      vertex 1.01545 0.0475521 0.913397
      vertex 1.01545 -0.0475521 0.913397
    endloop
  endfacet
  facet normal 0 0 -1
    outer loop
      vertex 1.01545 0.0475521 0.913397
      vertex 0.959549 -0.0293884 0.913397
      vertex 0.959549 0.0293884 0.913397
    endloop
  endfacet
  facet normal 0.732995 -0.532563 -0.423196
    outer loop
      vertex 1.1 1 0
      vertex 1.01545 0.952447 -0.0866022
      vertex 1.05 1 -0.0866022
    endloop
  endfacet
  facet normal 0.732994 0.53254 0.423227
    outer loop
      vertex 1.0309 1.09511 0
      vertex 1.01545 1.04755 0.0866022
      vertex 1.1 1 0
    endloop
  endfacet
  facet normal 0.732982 0.532587 0.423189
    outer loop
      vertex 1.1 1 0
      vertex 1.01545 1.04755 0.0866022
      vertex 1.05 1 0.0866022
    endloop
  endfacet
  facet normal -0.906036 0 0.4232
    outer loop
      vertex 0.919098 1.05878 0
      vertex 0.959549 0.970611 0.0866022
      vertex 0.959549 1.02939 0.0866022
    endloop
  endfacet
  facet normal -0.906036 0 0.4232
    outer loop
      vertex 0.959549 0.970611 0.0866022
      vertex 0.919098 1.05878 0
      vertex 0.919098 0.941221 0
    endloop
  endfacet
  facet normal 0.732995 -0.532563 -0.423196
    outer loop
      vertex 1.0309 0.904894 0
      vertex 1.01545 0.952447 -0.0866022
      vertex 1.1 1 0
    endloop
  endfacet
  facet normal -0.906036 0 -0.4232
    outer loop
      vertex 0.959549 0.970611 -0.0866022
      vertex 0.919098 1.05878 0
      vertex 0.959549 1.02939 -0.0866022
    endloop
  endfacet
  facet normal -0.906036 -0 -0.4232
    outer loop
      vertex 0.919098 1.05878 0
      vertex 0.959549 0.970611 -0.0866022
      vertex 0.919098 0.941221 0
    endloop
  endfacet
  facet normal -0.279982 -0.861688 -0.423206
    outer loop
      vertex 0.959549 0.970611 -0.0866022
      vertex 1.0309 0.904894 0
      vertex 0.919098 0.941221 0
    endloop
  endfacet
  facet normal -0.27999 -0.861689 -0.4232
    outer loop
      vertex 1.0309 0.904894 0
      vertex 0.959549 0.970611 -0.0866022
      vertex 1.01545 0.952447 -0.0866022
    endloop
  endfacet
  facet normal -0.279924 0.861674 0.423273
    outer loop
      vertex 1.0309 1.09511 0
      vertex 0.959549 1.02939 0.0866022
      vertex 1.01545 1.04755 0.0866022
    endloop
  endfacet
  facet normal -0.280002 0.861679 0.423212
    outer loop
      vertex 0.959549 1.02939 0.0866022
      vertex 1.0309 1.09511 0
      vertex 0.919098 1.05878 0
    endloop
  endfacet
  facet normal 0.732995 -0.532563 0.423196
    outer loop
      vertex 1.1 1 0
      vertex 1.01545 0.952447 0.0866022
      vertex 1.0309 0.904894 0
    endloop
  endfacet
  facet normal 0.732995 -0.532563 0.423196
    outer loop
      vertex 1.05 1 0.0866022
      vertex 1.01545 0.952447 0.0866022
      vertex 1.1 1 0
    endloop
  endfacet
  facet normal 0.732994 0.53254 -0.423227
    outer loop
      vertex 1.1 1 0
      vertex 1.01545 1.04755 -0.0866022
      vertex 1.0309 1.09511 0
    endloop
  endfacet
  facet normal 0.732982 0.532587 -0.423189
    outer loop
      vertex 1.05 1 -0.0866022
      vertex 1.01545 1.04755 -0.0866022
      vertex 1.1 1 0
    endloop
  endfacet
  facet normal -0.279982 -0.861688 0.423206
    outer loop
      vertex 1.0309 0.904894 0
      vertex 0.959549 0.970611 0.0866022
      vertex 0.919098 0.941221 0
    endloop
  endfacet
  facet normal -0.27999 -0.861689 0.4232
    outer loop
      vertex 0.959549 0.970611 0.0866022
      vertex 1.0309 0.904894 0
      vertex 1.01545 0.952447 0.0866022
    endloop
  endfacet
  facet normal 0 0 1
    outer loop
      vertex 1.01545 1.04755 0.0866022
      vertex 1.01545 0.952447 0.0866022
      vertex 1.05 1 0.0866022
    endloop
  endfacet
  facet normal -0 0 1
    outer loop
      vertex 0.959549 1.02939 0.0866022
      vertex 1.01545 0.952447 0.0866022
      vertex 1.01545 1.04755 0.0866022
    endloop
  endfacet
  facet normal 0 0 1
    outer loop
      vertex 1.01545 0.952447 0.0866022
      vertex 0.959549 1.02939 0.0866022
      vertex 0.959549 0.970611 0.0866022
    endloop
  endfacet
  facet normal -0.279924 0.861674 -0.423273
    outer loop
      vertex 0.959549 1.02939 -0.0866022
      vertex 1.0309 1.09511 0
      vertex 1.01545 1.04755 -0.0866022
    endloop
  endfacet
  facet normal -0.280002 0.861679 -0.423212
    outer loop
      vertex 1.0309 1.09511 0
      vertex 0.959549 1.02939 -0.0866022
      vertex 0.919098 1.05878 0
    endloop
  endfacet
  facet normal 0 0 -1
    outer loop
      vertex 1.01545 0.952447 -0.0866022
      vertex 1.01545 1.04755 -0.0866022
      vertex 1.05 1 -0.0866022
    endloop
  endfacet
  facet normal 0 0 -1
    outer loop
      vertex 0.959549 0.970611 -0.0866022
      vertex 1.01545 1.04755 -0.0866022
      vertex 1.01545 0.952447 -0.0866022
    endloop
  endfacet
  facet normal 0 0 -1
    outer loop
      vertex 1.01545 1.04755 -0.0866022
      vertex 0.959549 0.970611 -0.0866022
      vertex 0.959549 1.02939 -0.0866022
    endloop
  endfacet
endsolid OpenSCAD_Model
